<svg width="323" height="40" viewBox="0 0 323 40" fill="none" xmlns="http://www.w3.org/2000/svg">
<path d="M25.0091 2.69672V27.8109C25.0091 31.6988 23.9057 34.6936 21.6991 36.7952C19.5274 38.8968 16.5852 39.9476 12.8723 39.9476C8.98436 39.9476 5.86698 38.8443 3.52019 36.6376C1.1734 34.4309 0 31.296 0 27.2329H8.93182C8.93182 28.7741 9.24706 29.9475 9.87754 30.7531C10.508 31.5237 11.4187 31.909 12.6096 31.909C13.6955 31.909 14.5361 31.5587 15.1315 30.8582C15.727 30.1577 16.0247 29.1419 16.0247 27.8109V2.69672H25.0091Z" fill="black"/>
<path d="M30.4798 24.8686C30.4798 21.8563 31.0402 19.2118 32.1611 16.9351C33.317 14.6583 34.8757 12.907 36.8372 11.6811C38.7987 10.4551 40.9878 9.84217 43.4047 9.84217C45.4713 9.84217 47.2751 10.2625 48.8163 11.1031C50.3925 11.9438 51.6009 13.0471 52.4416 14.4132V10.2625H61.4259V39.5799H52.4416V35.4292C51.5659 36.7952 50.34 37.8986 48.7638 38.7392C47.2226 39.5799 45.4187 40.0002 43.3521 40.0002C40.9703 40.0002 38.7987 39.3872 36.8372 38.1613C34.8757 36.9003 33.317 35.1315 32.1611 32.8547C31.0402 30.543 30.4798 27.8809 30.4798 24.8686ZM52.4416 24.9212C52.4416 22.6795 51.8111 20.9106 50.5501 19.6146C49.3242 18.3186 47.8181 17.6706 46.0317 17.6706C44.2453 17.6706 42.7217 18.3186 41.4607 19.6146C40.2348 20.8756 39.6218 22.6269 39.6218 24.8686C39.6218 27.1103 40.2348 28.8967 41.4607 30.2277C42.7217 31.5237 44.2453 32.1717 46.0317 32.1717C47.8181 32.1717 49.3242 31.5237 50.5501 30.2277C51.8111 28.9317 52.4416 27.1629 52.4416 24.9212Z" fill="black"/>
<path d="M85.7894 9.94725C89.222 9.94725 91.9541 11.0681 93.9856 13.3098C96.0522 15.5165 97.0855 18.5638 97.0855 22.4518V39.5799H88.1537V23.6602C88.1537 21.6987 87.6458 20.1751 86.63 19.0892C85.6142 18.0034 84.2482 17.4605 82.5319 17.4605C80.8156 17.4605 79.4495 18.0034 78.4337 19.0892C77.418 20.1751 76.9101 21.6987 76.9101 23.6602V39.5799H67.9257V10.2625H76.9101V14.1505C77.8208 12.8545 79.0467 11.8387 80.5879 11.1031C82.1291 10.3325 83.8629 9.94725 85.7894 9.94725Z" fill="black"/>
<path d="M121.192 9.94725C124.625 9.94725 127.357 11.0681 129.389 13.3098C131.455 15.5165 132.488 18.5638 132.488 22.4518V39.5799H123.557V23.6602C123.557 21.6987 123.049 20.1751 122.033 19.0892C121.017 18.0034 119.651 17.4605 117.935 17.4605C116.219 17.4605 114.853 18.0034 113.837 19.0892C112.821 20.1751 112.313 21.6987 112.313 23.6602V39.5799H103.329V10.2625H112.313V14.1505C113.224 12.8545 114.45 11.8387 115.991 11.1031C117.532 10.3325 119.266 9.94725 121.192 9.94725Z" fill="black"/>
<path d="M136.945 24.8686C136.945 21.8563 137.506 19.2118 138.627 16.9351C139.783 14.6583 141.341 12.907 143.303 11.6811C145.264 10.4551 147.453 9.84217 149.87 9.84217C151.937 9.84217 153.741 10.2625 155.282 11.1031C156.858 11.9438 158.066 13.0471 158.907 14.4132V10.2625H167.891V39.5799H158.907V35.4292C158.031 36.7952 156.805 37.8986 155.229 38.7392C153.688 39.5799 151.884 40.0002 149.818 40.0002C147.436 40.0002 145.264 39.3872 143.303 38.1613C141.341 36.9003 139.783 35.1315 138.627 32.8547C137.506 30.543 136.945 27.8809 136.945 24.8686ZM158.907 24.9212C158.907 22.6795 158.277 20.9106 157.016 19.6146C155.79 18.3186 154.284 17.6706 152.497 17.6706C150.711 17.6706 149.187 18.3186 147.926 19.6146C146.7 20.8756 146.087 22.6269 146.087 24.8686C146.087 27.1103 146.7 28.8967 147.926 30.2277C149.187 31.5237 150.711 32.1717 152.497 32.1717C154.284 32.1717 155.79 31.5237 157.016 30.2277C158.277 28.9317 158.907 27.1629 158.907 24.9212Z" fill="black"/>
<path d="M192.412 9.94725C195.775 9.94725 198.472 11.0681 200.504 13.3098C202.535 15.5165 203.551 18.5638 203.551 22.4518V39.5799H194.619V23.6602C194.619 21.6987 194.111 20.1751 193.096 19.0892C192.08 18.0034 190.714 17.4605 188.997 17.4605C187.281 17.4605 185.915 18.0034 184.899 19.0892C183.883 20.1751 183.376 21.6987 183.376 23.6602V39.5799H174.391V0.700195H183.376V14.203C184.286 12.907 185.53 11.8737 187.106 11.1031C188.682 10.3325 190.451 9.94725 192.412 9.94725Z" fill="black"/>
<path d="M226.681 39.5799L220.867 29.5973H217.014V39.5799H213.827V15.1663H221.708C223.552 15.1663 225.105 15.4815 226.366 16.112C227.651 16.7425 228.608 17.5948 229.238 18.6689C229.869 19.7431 230.184 20.969 230.184 22.3468C230.184 24.028 229.694 25.5108 228.713 26.7951C227.756 28.0795 226.308 28.9318 224.37 29.3521L230.499 39.5799H226.681ZM217.014 27.0403H221.708C223.436 27.0403 224.732 26.62 225.596 25.7794C226.46 24.9154 226.892 23.7712 226.892 22.3468C226.892 20.8756 226.471 19.7314 225.631 18.9141C224.79 18.0968 223.482 17.6882 221.708 17.6882H217.014V27.0403Z" fill="#AAAAAA"/>
<path d="M233.946 29.9125C233.946 27.951 234.343 26.2347 235.137 24.7636C235.931 23.2691 237.017 22.1132 238.394 21.2959C239.795 20.4787 241.348 20.07 243.053 20.07C244.734 20.07 246.194 20.432 247.431 21.1558C248.669 21.8797 249.591 22.7904 250.198 23.8879V20.3853H253.421V39.5799H250.198V36.0072C249.568 37.128 248.622 38.0621 247.361 38.8093C246.124 39.5332 244.676 39.8951 243.018 39.8951C241.313 39.8951 239.772 39.4748 238.394 38.6342C237.017 37.7935 235.931 36.6143 235.137 35.0965C234.343 33.5787 233.946 31.8507 233.946 29.9125ZM250.198 29.9476C250.198 28.4998 249.906 27.2388 249.323 26.1647C248.739 25.0905 247.945 24.2732 246.941 23.7128C245.96 23.129 244.874 22.8371 243.683 22.8371C242.492 22.8371 241.407 23.1173 240.426 23.6778C239.445 24.2382 238.663 25.0555 238.079 26.1296C237.495 27.2038 237.203 28.4648 237.203 29.9125C237.203 31.3836 237.495 32.668 238.079 33.7655C238.663 34.8396 239.445 35.6686 240.426 36.2524C241.407 36.8128 242.492 37.093 243.683 37.093C244.874 37.093 245.96 36.8128 246.941 36.2524C247.945 35.6686 248.739 34.8396 249.323 33.7655C249.906 32.668 250.198 31.3953 250.198 29.9476Z" fill="#AAAAAA"/>
<path d="M257.616 29.9125C257.616 27.951 258.013 26.2347 258.807 24.7636C259.601 23.2691 260.687 22.1132 262.065 21.2959C263.466 20.4787 265.03 20.07 266.758 20.07C268.253 20.07 269.642 20.4203 270.927 21.1208C272.211 21.798 273.192 22.697 273.869 23.8179V13.6601H277.091V39.5799H273.869V35.9721C273.238 37.1164 272.304 38.0621 271.067 38.8093C269.829 39.5332 268.381 39.8951 266.723 39.8951C265.019 39.8951 263.466 39.4748 262.065 38.6342C260.687 37.7935 259.601 36.6143 258.807 35.0965C258.013 33.5787 257.616 31.8507 257.616 29.9125ZM273.869 29.9476C273.869 28.4998 273.577 27.2388 272.993 26.1647C272.409 25.0905 271.615 24.2732 270.611 23.7128C269.631 23.129 268.545 22.8371 267.354 22.8371C266.163 22.8371 265.077 23.1173 264.096 23.6778C263.116 24.2382 262.333 25.0555 261.75 26.1296C261.166 27.2038 260.874 28.4648 260.874 29.9125C260.874 31.3836 261.166 32.668 261.75 33.7655C262.333 34.8396 263.116 35.6686 264.096 36.2524C265.077 36.8128 266.163 37.093 267.354 37.093C268.545 37.093 269.631 36.8128 270.611 36.2524C271.615 35.6686 272.409 34.8396 272.993 33.7655C273.577 32.668 273.869 31.3953 273.869 29.9476Z" fill="#AAAAAA"/>
<path d="M284.124 17.2679C283.517 17.2679 283.003 17.0577 282.583 16.6374C282.162 16.2171 281.952 15.7033 281.952 15.0962C281.952 14.4891 282.162 13.9754 282.583 13.555C283.003 13.1347 283.517 12.9246 284.124 12.9246C284.708 12.9246 285.198 13.1347 285.595 13.555C286.015 13.9754 286.226 14.4891 286.226 15.0962C286.226 15.7033 286.015 16.2171 285.595 16.6374C285.198 17.0577 284.708 17.2679 284.124 17.2679ZM285.665 20.3853V39.5799H282.478V20.3853H285.665Z" fill="#AAAAAA"/>
<path d="M299.469 39.8951C297.671 39.8951 296.036 39.4865 294.565 38.6692C293.117 37.8519 291.973 36.696 291.133 35.2016C290.315 33.6837 289.907 31.9324 289.907 29.9476C289.907 27.9861 290.327 26.2581 291.168 24.7636C292.032 23.2458 293.199 22.0899 294.67 21.2959C296.141 20.4787 297.788 20.07 299.609 20.07C301.43 20.07 303.077 20.4787 304.548 21.2959C306.019 22.0899 307.175 23.2341 308.015 24.7286C308.879 26.223 309.311 27.9627 309.311 29.9476C309.311 31.9324 308.868 33.6837 307.98 35.2016C307.116 36.696 305.937 37.8519 304.443 38.6692C302.948 39.4865 301.29 39.8951 299.469 39.8951ZM299.469 37.1981C300.613 37.1981 301.687 36.9295 302.691 36.3925C303.695 35.832 304.501 35.0031 305.108 33.9056C305.739 32.8081 306.054 31.4887 306.054 29.9476C306.054 28.4064 305.75 27.0987 305.143 26.0246C304.536 24.9271 303.742 24.1098 302.761 23.5727C301.781 23.0356 300.718 22.7671 299.574 22.7671C298.406 22.7671 297.332 23.0356 296.352 23.5727C295.394 24.1098 294.624 24.9271 294.04 26.0246C293.456 27.0987 293.164 28.4064 293.164 29.9476C293.164 31.5121 293.444 32.8431 294.005 33.9406C294.589 35.0148 295.359 35.832 296.317 36.3925C297.274 36.9295 298.325 37.1981 299.469 37.1981Z" fill="#AAAAAA"/>
<circle cx="319.33" cy="36.5002" r="3.5" fill="#3389FF"/>
</svg>
